<svg width="76" height="130" viewBox="0 0 76 130" xmlns="http://www.w3.org/2000/svg">
<g clip-path="url(#clip0_20_2)">
<path d="M48.0212 58.2143V58.0922C52.0236 56.4313 54.447 52.9245 54.447 48.2506C54.447 43.9412 52.2054 40.8044 49.3535 39.0824C46.7465 37.4825 41.7143 37.4825 37.892 37.4825H22.1868V81.4096H43.1096C51.7193 81.4096 56.2672 75.2562 56.2672 68.7975C56.2672 63.3838 53.3595 59.3222 48.0212 58.2143ZM27.9446 42.4132H39.4674C44.442 42.4132 48.6838 43.2733 48.6838 49.3639C48.6838 53.9803 46.0137 56.3792 39.4674 56.3792H27.9446V42.4132ZM42.3823 76.4915H27.9446V61.2919H41.1058C45.9669 61.2919 50.5076 62.89 50.5076 68.6143C50.5076 73.4103 47.3533 76.4861 42.3823 76.4861V76.4915ZM38.0612 20.9596C17.1113 20.9596 0.127829 38.1972 0.127829 59.4461C0.127829 80.695 17.1149 97.9308 38.0594 97.9308C59.0039 97.9308 76 80.6932 76 59.4461C76 38.199 59.0147 20.9596 38.0594 20.9596H38.0612ZM38.0594 92.878C19.875 92.878 5.12764 77.919 5.12764 59.464C5.12764 41.0091 19.8714 26.0555 38.0594 26.0555C56.2474 26.0555 70.9966 41.0127 70.9966 59.464C70.9966 77.9154 56.2546 92.878 38.0594 92.878ZM0.20525 111.1H75.9226V106.05H0.20525V111.1ZM74.4768 98.5305C74.197 98.4107 73.8955 98.3496 73.591 98.3509C73.2901 98.3501 72.9922 98.4112 72.716 98.5305C72.4473 98.6427 72.2028 98.8055 71.9958 99.0099C71.7896 99.2175 71.623 99.4609 71.5043 99.7281C71.3791 100.015 71.3177 100.326 71.3243 100.638C71.3168 100.951 71.3783 101.261 71.5043 101.547C71.6191 101.82 71.786 102.068 71.9958 102.278C72.2012 102.486 72.446 102.65 72.716 102.763C72.9927 102.88 73.2902 102.941 73.591 102.942C73.8953 102.942 74.1965 102.881 74.4768 102.763C74.7439 102.65 74.9857 102.485 75.188 102.278C75.399 102.069 75.5661 101.821 75.6795 101.547C75.8049 101.261 75.8663 100.951 75.8596 100.638C75.8652 100.326 75.8038 100.015 75.6795 99.7281C75.5622 99.4601 75.3955 99.2165 75.188 99.0099C74.9841 98.806 74.7426 98.6432 74.4768 98.5305ZM75.4491 100.635C75.4515 100.9 75.402 101.163 75.3032 101.409C75.2144 101.64 75.0825 101.853 74.9143 102.035C74.7449 102.21 74.5439 102.351 74.322 102.45C74.0901 102.549 73.8397 102.598 73.5874 102.594C73.3391 102.598 73.0926 102.551 72.8638 102.455C72.6349 102.359 72.4288 102.216 72.2587 102.035C72.0857 101.857 71.9531 101.643 71.8698 101.409C71.7717 101.163 71.7228 100.9 71.7258 100.635C71.7224 100.372 71.7713 100.111 71.8698 99.8664C71.9543 99.6344 72.0868 99.4227 72.2587 99.2451C72.4311 99.0675 72.6376 98.9264 72.8659 98.8302C73.0942 98.7339 73.3396 98.6845 73.5874 98.6849C73.84 98.6845 74.09 98.7359 74.322 98.8357C74.5426 98.9354 74.7433 99.0741 74.9143 99.2451C75.082 99.426 75.214 99.6367 75.3032 99.8664C75.4023 100.11 75.4518 100.372 75.4491 100.635ZM74.4588 100.599C74.5295 100.529 74.584 100.445 74.6185 100.352C74.6531 100.259 74.6667 100.159 74.6587 100.06C74.6662 99.9529 74.6494 99.8451 74.6095 99.745C74.5696 99.645 74.5076 99.5551 74.4282 99.4821C74.2245 99.3414 73.9785 99.2749 73.7315 99.2936H72.7052V101.973H73.1211V100.818H73.5532L74.2734 101.973H74.7109L73.9529 100.795C74.1363 100.777 74.3108 100.708 74.4552 100.594L74.4588 100.599ZM73.555 100.486H73.1265V99.633H73.6666C73.7386 99.633 73.8053 99.633 73.8755 99.6437C73.9387 99.6551 73.9996 99.6769 74.0555 99.7084C74.1107 99.7355 74.157 99.7779 74.1888 99.8305C74.2271 99.8942 74.2448 99.9682 74.2392 100.042C74.246 100.129 74.2265 100.216 74.1834 100.292C74.1457 100.35 74.0919 100.396 74.0285 100.425C73.9596 100.455 73.8858 100.472 73.8107 100.475C73.7279 100.475 73.6306 100.486 73.546 100.486H73.555ZM1.78603 12.4522C2.37271 13.1085 3.09589 13.6294 3.90515 13.9784C4.79836 14.3597 5.76217 14.5487 6.73363 14.5332C7.52433 14.5424 8.3103 14.4105 9.05439 14.1436C9.73847 13.8961 10.3646 13.5117 10.8944 13.0142C11.4286 12.5039 11.8568 11.8938 12.1547 11.2186C12.4852 10.4733 12.6855 9.67718 12.7471 8.86459H9.83938C9.71935 9.7983 9.40308 10.5506 8.89055 11.1216C8.37803 11.6926 7.65786 11.9781 6.73003 11.9781C6.12959 11.9967 5.53461 11.8593 5.00341 11.5795C4.54075 11.3221 4.14634 10.9583 3.85293 10.5183C3.5533 10.0633 3.33577 9.55954 3.21018 9.02979C3.0762 8.47228 3.00911 7.90087 3.01033 7.32758C3.0107 6.73461 3.07895 6.14363 3.21378 5.56611C3.33682 5.02377 3.55438 4.50719 3.85653 4.03987C4.14618 3.59255 4.54115 3.22268 5.00701 2.96252C5.5383 2.68297 6.13321 2.54563 6.73363 2.5639C7.4556 2.55909 8.15641 2.80689 8.71411 3.26418C8.97569 3.48351 9.19844 3.74511 9.37307 4.03808C9.55824 4.33075 9.68083 4.6584 9.73316 5.00051H12.6481C12.5763 4.25082 12.3547 3.52307 11.9963 2.86017C11.6668 2.25641 11.22 1.72414 10.682 1.29443C10.1441 0.868815 9.53441 0.542293 8.88155 0.330203C7.25075 -0.180035 5.4914 -0.0973307 3.91595 0.563628C3.1039 0.921717 2.38052 1.45313 1.79683 2.1204C1.20968 2.80258 0.760331 3.59156 0.473516 4.44388C0.158649 5.37501 0.00225079 6.35214 0.0108022 7.33476C0.00243424 8.29728 0.158294 9.2542 0.471713 10.1646C0.758805 11.006 1.20838 11.7831 1.79503 12.4522H1.78603ZM14.6573 13.0142C15.1008 13.487 15.6446 13.8551 16.2489 14.0915C16.9205 14.3528 17.6365 14.4814 18.3572 14.4704C19.4831 14.4704 20.4433 14.2112 21.2379 13.6929C22.0325 13.1746 22.6207 12.3121 23.0024 11.1055H20.5934C20.4579 11.4744 20.2008 11.7865 19.8642 11.9907C19.4472 12.2756 18.9507 12.422 18.4455 12.4091C17.6785 12.4091 17.0903 12.208 16.681 11.8058C16.2717 11.4035 16.0479 10.7547 16.0095 9.85935H23.1626C23.2151 9.10873 23.1501 8.35454 22.97 7.62385C22.8046 6.93845 22.5087 6.29109 22.0985 5.71694C21.6946 5.15854 21.1657 4.70175 20.5538 4.38283C19.8706 4.03929 19.1131 3.86907 18.3482 3.88725C17.639 3.88208 16.9366 4.02585 16.2867 4.30921C15.6786 4.57139 15.1309 4.95527 14.6775 5.43708C14.2241 5.9189 13.8747 6.48839 13.6509 7.11031C13.4051 7.78327 13.2831 8.49496 13.2908 9.21114C13.2845 9.94009 13.4064 10.6645 13.6509 11.3515C13.8695 11.9713 14.2126 12.5401 14.6591 13.0232L14.6573 13.0142ZM16.1445 7.45686C16.223 7.18569 16.3574 6.93385 16.5391 6.71742C16.7208 6.501 16.9457 6.32475 17.1996 6.19995C17.5367 6.04096 17.9071 5.96463 18.2798 5.9773C18.9448 5.9773 19.4399 6.15686 19.7652 6.51598C20.0905 6.87509 20.3179 7.40658 20.4476 8.11045H16.0095C16.0277 7.88648 16.0694 7.66503 16.1337 7.44968L16.1445 7.45686ZM27.1164 9.68697C27.114 9.26438 27.1587 8.84283 27.2496 8.43006C27.3299 8.06267 27.4836 7.71519 27.7015 7.40838C27.9168 7.11184 28.2035 6.8741 28.5351 6.71708C28.9306 6.53898 29.3616 6.45302 29.7954 6.4657C29.9681 6.46577 30.1406 6.47536 30.3121 6.49443C30.4922 6.51418 30.6452 6.53573 30.773 6.56087V3.98959C30.581 3.92761 30.3808 3.89433 30.1789 3.89084C29.8402 3.88984 29.5035 3.94257 29.1815 4.04705C28.8613 4.15214 28.5571 4.30078 28.2776 4.48877C27.7153 4.87121 27.2773 5.40918 27.0173 6.03656H26.9795V4.16377H24.3887V14.219H27.1128V9.69595L27.1164 9.68697ZM33.3495 11.944C33.3307 12.3663 33.416 12.7868 33.5979 13.1686C33.753 13.4668 33.9888 13.7156 34.2785 13.8868C34.5861 14.0625 34.9248 14.1778 35.2759 14.2262C35.6727 14.2866 36.0736 14.316 36.475 14.3142C36.7433 14.3142 37.0152 14.3142 37.2996 14.2944C37.5566 14.2845 37.8128 14.2587 38.0666 14.2172V12.0823C37.9333 12.1083 37.7987 12.1275 37.6633 12.1397C37.5167 12.1538 37.3695 12.1604 37.2222 12.1595C36.7631 12.1595 36.4552 12.0823 36.3022 11.9261C36.1492 11.7698 36.0717 11.4592 36.0717 10.9924V6.01142H38.0666V4.16377H36.0681V1.14899H33.3459V4.16377H31.6985V6.01142H33.3477L33.3495 11.944ZM42.3751 4.16197H39.6492V14.2172H42.3715L42.3751 4.16197ZM42.3751 0.328407H39.6492V2.607H42.3715L42.3751 0.328407ZM45.0847 14.2208H47.8088V6.01142H49.6866V4.16377H47.8052V3.56045C47.8052 3.14567 47.8844 2.84222 48.0446 2.67523C48.2049 2.50824 48.4695 2.41308 48.8404 2.41308C49.1732 2.41146 49.5058 2.43126 49.8361 2.47233V0.409208C49.6074 0.396639 49.3698 0.378683 49.1285 0.360728C48.8872 0.342772 48.6406 0.330203 48.3993 0.330203C47.2867 0.330203 46.4554 0.6157 45.9057 1.18669C45.6297 1.48067 45.4147 1.82621 45.2732 2.20341C45.1317 2.58061 45.0664 2.98201 45.0811 3.38448V4.16377H43.4517V6.01142H45.0811L45.0847 14.2208ZM54.2561 0.328407H51.5285V2.607H54.2525L54.2561 0.328407ZM54.2561 4.16197H51.5285V14.2172H54.2525L54.2561 4.16197ZM56.5193 13.0124C56.9627 13.4852 57.5065 13.8533 58.1109 14.0897C58.7824 14.351 59.4984 14.4796 60.2192 14.4686C61.2354 14.4993 62.2379 14.2287 63.0999 13.6911C63.8897 13.1716 64.4772 12.3091 64.8625 11.1037H62.4589C62.3266 11.4717 62.0726 11.7839 61.7388 11.9889C61.3212 12.274 60.8241 12.4204 60.3182 12.4073C59.5536 12.4073 58.9655 12.2062 58.5538 11.804C58.1421 11.4017 57.9164 10.7547 57.8768 9.86294H65.0299C65.0824 9.11232 65.0174 8.35813 64.8373 7.62744C64.6719 6.94204 64.3761 6.29468 63.9659 5.72053C63.5619 5.16214 63.033 4.70534 62.4211 4.38642C61.738 4.04288 60.9804 3.87266 60.2156 3.89084C59.5066 3.88416 58.8041 4.02672 58.1541 4.30921C57.5501 4.57018 57.0056 4.95075 56.5535 5.42785C56.098 5.91319 55.7459 6.48552 55.5182 7.11031C55.2724 7.78327 55.1504 8.49496 55.1582 9.21114C55.1519 9.94009 55.2737 10.6645 55.5182 11.3515C55.7375 11.9709 56.0805 12.5396 56.5265 13.0232L56.5193 13.0124ZM58.0118 7.45686C58.0913 7.18611 58.226 6.93468 58.4076 6.71838C58.5892 6.50207 58.8136 6.32556 59.0669 6.19995C59.4043 6.04169 59.7745 5.96539 60.1472 5.9773C60.8109 5.9773 61.306 6.15686 61.6325 6.51598C61.959 6.87509 62.1835 7.40718 62.3059 8.11225H57.8768C57.8951 7.88828 57.9367 7.66682 58.001 7.45147L58.0118 7.45686ZM66.9384 12.8508C67.3019 13.3493 67.7781 13.7553 68.3283 14.0359C68.906 14.3104 69.5355 14.4594 70.1752 14.473C70.8149 14.4866 71.4502 14.3645 72.039 14.1149C72.572 13.8629 73.0127 13.4511 73.2993 12.937H73.3372V14.2226H75.9262V0.330203H73.1985V5.38656H73.1607C72.8592 4.89935 72.421 4.51104 71.9004 4.2697C71.379 4.0182 70.807 3.88863 70.2278 3.89084C69.5615 3.87575 68.9019 4.02632 68.3085 4.32896C67.7726 4.60988 67.3049 5.0046 66.9384 5.48531C66.5634 5.98496 66.2839 6.5492 66.1138 7.14982C65.9277 7.78495 65.8343 8.44351 65.8365 9.1052C65.8336 9.79053 65.927 10.4729 66.1138 11.1324C66.283 11.7511 66.5623 12.3343 66.9384 12.8544V12.8508ZM68.683 7.99015C68.7573 7.62919 68.8931 7.28362 69.0845 6.96846C69.2694 6.67292 69.5233 6.42647 69.8245 6.25023C70.1672 6.0589 70.5554 5.96337 70.948 5.97371C71.337 5.95843 71.7225 6.05237 72.0606 6.24484C72.3509 6.42454 72.597 6.66692 72.7808 6.9541C72.972 7.26521 73.105 7.60834 73.1733 7.9668C73.2502 8.35899 73.2888 8.75767 73.2885 9.15727C73.289 9.56164 73.2504 9.96511 73.1733 10.3621C73.1045 10.7281 72.9749 11.0801 72.7898 11.4035C72.6149 11.703 72.3672 11.9537 72.0696 12.1325C71.729 12.3277 71.3407 12.4247 70.948 12.4127C70.5682 12.424 70.1932 12.3261 69.8677 12.1308C69.5661 11.9427 69.3102 11.69 69.1187 11.391C68.9147 11.0717 68.7684 10.7192 68.6866 10.3495C68.5987 9.96667 68.554 9.57519 68.5534 9.18241C68.5512 8.78048 68.5928 8.37949 68.6776 7.98656L68.683 7.99015ZM4.73875 125.931C2.83388 125.931 2.11731 124.286 2.11731 122.658C2.11731 120.945 2.83749 119.3 4.73875 119.3C5.792 119.3 6.71923 120.04 6.84706 121.013H8.89775C8.64029 118.752 6.85966 117.492 4.73875 117.492C1.75542 117.492 0 119.752 0 122.658C0 125.479 1.75542 127.739 4.73875 127.739C7.10272 127.739 8.76452 126.177 8.98058 123.739H6.92448C6.76604 125.026 6.02426 125.931 4.73875 125.931ZM13.4078 120.232C11.2185 120.232 9.80697 121.71 9.80697 123.972C9.80697 126.234 11.2239 127.698 13.4078 127.698C15.5918 127.698 17.0267 126.218 17.0267 123.972C17.0267 121.726 15.608 120.232 13.4078 120.232ZM13.4078 126.231C12.1115 126.231 11.7172 125.094 11.7172 123.972C11.7172 122.85 12.1115 121.697 13.4078 121.697C14.7042 121.697 15.1075 122.835 15.1075 123.972C15.1075 125.109 14.7168 126.229 13.4078 126.229V126.231ZM20.0587 121.724H20.0299V120.411H18.2096V127.486H20.1253V124.302C20.1253 123.056 20.6114 122.029 22.0175 122.029C22.249 122.028 22.48 122.051 22.7071 122.096V120.288C22.5715 120.244 22.4301 120.221 22.2876 120.219C21.8097 120.228 21.3447 120.375 20.949 120.643C20.5534 120.91 20.244 121.286 20.0587 121.726V121.724ZM27.3774 120.232C26.515 120.232 25.757 120.575 25.2997 121.327H25.2745V120.429H23.4561V130H25.3717V126.629H25.3969C25.6288 126.967 25.9416 127.242 26.307 127.429C26.6723 127.615 27.0787 127.708 27.4891 127.698C29.5289 127.698 30.5498 125.931 30.5498 124.04C30.5498 122.027 29.5668 120.232 27.3756 120.232H27.3774ZM26.9795 126.229C25.7372 126.229 25.3051 125.134 25.3051 123.985C25.3051 122.835 25.7102 121.695 26.9651 121.695C28.22 121.695 28.6395 122.859 28.6395 123.985C28.6395 125.11 28.2362 126.229 26.9795 126.229ZM34.7592 120.232C32.5735 120.232 31.1583 121.71 31.1583 123.972C31.1583 126.234 32.5753 127.698 34.7592 127.698C36.9431 127.698 38.3817 126.218 38.3817 123.972C38.3817 121.726 36.9665 120.232 34.7592 120.232ZM34.7592 126.229C33.4647 126.229 33.0722 125.092 33.0722 123.97C33.0722 122.848 33.4647 121.695 34.7592 121.695C36.0537 121.695 36.4624 122.834 36.4624 123.97C36.4624 125.107 36.0753 126.229 34.7592 126.229ZM41.4208 121.724H41.392V120.411H39.57V127.486H41.4874V124.302C41.4874 123.056 41.9736 122.029 43.3779 122.029C43.6094 122.028 43.8404 122.05 44.0675 122.096V120.288C43.9319 120.244 43.7905 120.221 43.648 120.219C43.1702 120.228 42.7053 120.375 42.3099 120.642C41.9144 120.91 41.6055 121.286 41.4208 121.726V121.724ZM50.9775 122.245C50.9775 120.548 49.3013 120.232 47.9168 120.232C46.3486 120.232 44.7426 120.771 44.6346 122.602H46.5521C46.6205 121.834 47.0922 121.534 47.8232 121.534C48.4947 121.534 49.0655 121.658 49.0655 122.491C49.0655 123.286 47.9708 123.245 46.7951 123.424C45.6194 123.604 44.4186 123.963 44.4186 125.579C44.4186 127.034 45.4718 127.703 46.7951 127.703C47.6467 127.703 48.538 127.472 49.1357 126.825C49.1566 127.059 49.2025 127.289 49.2725 127.513H51.2206C51.0406 127.224 50.9757 126.581 50.9757 125.936V122.245H50.9775ZM49.0601 124.759C49.0601 125.184 49.0043 126.387 47.5063 126.387C46.8852 126.387 46.3306 126.208 46.3306 125.489C46.3306 124.771 46.8708 124.568 47.4649 124.448C48.059 124.328 48.7342 124.326 49.0601 124.037V124.759ZM54.8503 118.294H52.9436V120.419H51.7733V121.72H52.9436V125.897C52.9436 127.308 53.9699 127.583 55.1419 127.583C55.5171 127.59 55.8921 127.567 56.2636 127.515V125.994C56.0673 126.031 55.8676 126.049 55.6677 126.048C55.0213 126.048 54.8593 125.884 54.8593 125.224V121.724H56.2636V120.424H54.8593V118.3L54.8503 118.294ZM57.7004 119.321H59.6178V117.718H57.7022L57.7004 119.321ZM57.7004 127.5H59.6178V120.424H57.7022L57.7004 127.5ZM64.5096 120.226C62.3239 120.226 60.9087 121.704 60.9087 123.967C60.9087 126.229 62.3257 127.692 64.5096 127.692C66.6935 127.692 68.1321 126.213 68.1321 123.967C68.1321 121.72 66.7115 120.226 64.5096 120.226ZM64.5096 126.225C63.2151 126.225 62.8226 125.089 62.8226 123.967C62.8226 122.844 63.2151 121.692 64.5096 121.692C65.8041 121.692 66.2128 122.83 66.2128 123.967C66.2128 125.103 65.8239 126.229 64.5114 126.229L64.5096 126.225ZM73.3714 120.23C72.9436 120.226 72.5222 120.333 72.148 120.54C71.7739 120.746 71.4597 121.046 71.236 121.41H71.1964V120.422H69.3726V127.504H71.2901V123.794C71.2901 122.358 71.7348 121.765 72.7772 121.765C73.6666 121.765 74.0051 122.342 74.0051 123.505V127.506H75.9226V123.15C75.9226 121.397 75.4095 120.232 73.3714 120.232" />
</g>
<defs>
<clipPath id="clip0_20_2">
<rect width="76" height="130" fill="white"/>
</clipPath>
</defs>
</svg>
