<svg xmlns="http://www.w3.org/2000/svg" viewBox="0 0 678.02 285.77" width="678" height="286">
  <g><path d="M0,10.88H20.1l21.73,65.55c2.35,6.88,4.71,17.57,4.71,17.57,0,0,3.08-10.5,5.98-17.57L80.77,9.61h2.35l28.43,66.82c2.9,6.88,5.79,17.57,5.79,17.57,0,0,2.53-10.68,4.89-17.57L143.97,10.88h18.65l-42.56,124.41h-2.35l-30.61-73.34c-2.53-5.98-5.07-15.03-5.07-15.03,0,0-2.9,9.05-5.43,15.03l-31.33,73.34h-2.35L0,10.88Z" fill="#131313"/><path d="M303.12,9.61h1.99l58.85,68.82L422.28,9.61h1.99v124.41h-18.29v-63.92c0-6.88,.72-17.75,.72-17.75,0,0-5.98,9.23-11.05,14.85l-30.97,37.31h-2.17l-30.97-37.31c-4.71-5.61-10.87-14.85-10.87-14.85,0,0,.72,10.86,.72,17.75v63.92h-18.29V9.61Z" fill="#131313"/><path d="M444.91,10.88h78.23V27.72h-59.03v47.81h52.33v16.48h-52.33v25.17h61.57v16.84h-80.77V10.88Z" fill="#131313"/><path d="M570.22,62.13c-4.89-5.25-11.59-13.76-11.59-13.76,0,0,1.27,10.14,1.27,17.75v67.91h-17.75V9.61h2.54l67.91,72.98c4.71,5.07,11.41,13.76,11.41,13.76,0,0-1.27-10.86-1.27-17.75V10.88h17.75v124.41h-2.35l-67.91-73.16Z" fill="#131313"/></g>
  <g><path d="M9.49,220.52c0-37.95,29.17-65.25,65.63-65.25s65.44,27.3,65.44,65.25-29.17,65.25-65.44,65.25S9.49,258.48,9.49,220.52Zm110.87,0c0-27.11-18.7-47.49-45.25-47.49s-45.43,20.38-45.43,47.49,18.88,47.49,45.43,47.49,45.25-20.38,45.25-47.49Z" fill="#131313"/><path d="M139.62,156.95h20.75l22.44,67.68c2.43,7.11,4.86,18.14,4.86,18.14,0,0,3.18-10.84,6.17-18.14l29.17-68.99h2.43l29.35,68.99c2.99,7.11,5.98,18.14,5.98,18.14,0,0,2.62-11.03,5.05-18.14l22.44-67.68h19.26l-43.94,128.45h-2.43l-31.6-75.72c-2.62-6.17-5.24-15.52-5.24-15.52,0,0-2.99,9.35-5.61,15.52l-32.35,75.72h-2.43l-44.31-128.45Z" fill="#131313"/><path d="M347.71,209.86c-5.05-5.42-11.97-14.21-11.97-14.21,0,0,1.31,10.47,1.31,18.32v70.11h-18.32V155.64h2.62l70.11,75.35c4.86,5.23,11.78,14.21,11.78,14.21,0,0-1.31-11.22-1.31-18.32v-69.93h18.32v128.45h-2.43l-70.11-75.53Z" fill="#131313"/><path d="M441.56,156.95h80.77v17.39h-60.95v49.36h54.04v17.01h-54.04v25.99h63.57v17.39h-83.39v-127.14Z" fill="#131313"/><path d="M541.96,156.95h34.96c40.76,0,67.87,25.43,67.87,63.57s-26.92,63.57-67.87,63.57h-34.96v-127.14Zm33.65,109.75c33.1,0,48.61-19.07,48.61-46.18s-15.52-46.18-48.61-46.18h-13.84v92.36h13.84Z" fill="#131313"/></g>
  <g><path d="M195.67,58.87c3.38,1.22,6.82,3.23,10.23,5.96,.14-.15,.27-.3,.4-.46,1.25-1.46,2.36-3.05,3.33-4.72,1.22-2.12,2.21-4.4,2.93-6.78,.25-.79,.44-1.59,.62-2.39l.27-1.39c.16-.83,.28-1.45,.36-2.09,.4-3.14,.43-6.48,.08-9.92-.37-3.55-1.14-7.33-2.29-11.22-.15-.52-.41-1.06-.79-1.7-1-1.69-2.58-2.93-4.44-3.49-1.52-.45-2.91-.46-4.44-.03-1.98,.59-3.61,1.92-4.6,3.75-.99,1.83-1.21,3.93-.61,5.91,.21,.72,.4,1.41,.57,2.09,.2,.77,.37,1.52,.52,2.27,.11,.56,.22,1.11,.3,1.66,.08,.48,.16,.99,.23,1.48,.38,3.11,.35,5.85-.11,8.39-.22,1.15-.5,2.16-.84,3.11-.34,.9-.73,1.75-1.21,2.59-.57,1.01-1.26,1.94-2.09,2.86-.66,.73-1.4,1.43-2.2,2.08-.19,.15-.37,.3-.57,.44,.73,.27,1.42,.52,2.08,.76l2.28,.85Z" fill="#131313"/><path d="M176.36,48.84c5.26,0,9.53-4.28,9.53-9.53s-4.27-9.54-9.53-9.54-9.53,4.28-9.53,9.54,4.28,9.53,9.53,9.53Z" fill="#131313"/><path d="M196.81,88.58c.57,.99,1.05,2.05,1.43,3.23,.3,.95,.54,1.94,.7,2.96,.04,.23,.07,.47,.1,.71,.54-.46,1.06-.88,1.56-1.29l2.01-1.66c2.76-2.32,6.21-4.3,10.28-5.89-.06-.19-.13-.39-.19-.58-.65-1.8-1.47-3.57-2.43-5.24-1.23-2.12-2.71-4.11-4.41-5.93-.56-.6-1.15-1.17-1.75-1.73l-1.07-.95c-.63-.54-1.11-.96-1.62-1.34-2.51-1.91-5.38-3.61-8.56-5.04-3.25-1.45-6.9-2.67-10.85-3.62-.5-.11-1.03-.17-1.69-.17-2.15,.03-4.01,.78-5.43,2.1-1.16,1.1-1.87,2.31-2.24,3.83-.48,2.01-.15,4.1,.94,5.86,1.09,1.77,2.8,3.01,4.81,3.49,.72,.17,1.42,.35,2.1,.55,.77,.22,1.51,.44,2.23,.68,.53,.18,1.07,.36,1.6,.57,.45,.17,.94,.36,1.4,.55,2.89,1.21,5.24,2.62,7.2,4.29,.89,.76,1.62,1.51,2.27,2.28,.61,.74,1.15,1.51,1.63,2.35Z" fill="#131313"/><path d="M180.78,91.2c-1.44-.84-3.08-1.28-4.75-1.28-3.41,0-6.58,1.82-8.28,4.77-1.27,2.2-1.61,4.77-.95,7.23,.66,2.46,2.24,4.52,4.44,5.79,1.44,.83,3.09,1.28,4.75,1.28,3.41,0,6.58-1.82,8.28-4.77,1.27-2.2,1.61-4.77,.95-7.23-.66-2.47-2.24-4.52-4.44-5.79Z" fill="#131313"/><path d="M204.52,119.11c2.08-.06,4.01-.92,5.43-2.42,.52-.54,1.02-1.06,1.52-1.55,.57-.55,1.14-1.08,1.71-1.58,.42-.38,.86-.76,1.29-1.1,.35-.29,.73-.59,1.1-.88,2.57-1.94,4.96-3.28,7.39-4.14,1.11-.39,2.12-.65,3.12-.82,2.08-.36,4.22-.31,6.35,.13,.98,.21,1.95,.5,2.91,.88,.22,.08,.44,.17,.66,.27-.13-.71-.24-1.38-.35-2.03l-.43-2.54c-.64-3.53-.62-7.52,.04-11.84-.2-.04-.4-.08-.61-.12-1.88-.34-3.82-.52-5.74-.52-2.45,0-4.92,.28-7.34,.85-.8,.18-1.59,.42-2.37,.65l-1.35,.46c-.86,.3-1.42,.49-1.98,.73-2.92,1.22-5.83,2.87-8.64,4.9-2.91,2.1-5.79,4.65-8.57,7.59-.38,.4-.72,.89-1.08,1.53-.96,1.72-1.25,3.71-.81,5.61,.37,1.54,1.07,2.77,2.2,3.85,1.44,1.37,3.33,2.12,5.31,2.12h.23Z" fill="#131313"/><path d="M227.92,120.29c-1.67,0-3.31,.44-4.75,1.28-4.56,2.63-6.12,8.47-3.49,13.02,1.7,2.94,4.87,4.77,8.28,4.77,1.66,0,3.31-.44,4.75-1.28,4.55-2.63,6.12-8.47,3.49-13.03-1.7-2.94-4.86-4.76-8.27-4.76Z" fill="#131313"/><path d="M260.87,80.48c-3.38-1.22-6.82-3.23-10.22-5.96-.13,.15-.27,.3-.4,.46-1.24,1.46-2.36,3.05-3.33,4.72-1.22,2.11-2.2,4.39-2.93,6.78-.24,.78-.43,1.59-.62,2.39l-.28,1.4c-.17,.89-.28,1.48-.35,2.07-.41,3.15-.43,6.49-.08,9.94,.36,3.56,1.13,7.33,2.29,11.21,.15,.53,.4,1.07,.78,1.7,1,1.69,2.58,2.93,4.44,3.5,1.54,.46,2.92,.47,4.43,.03,1.99-.59,3.63-1.93,4.61-3.75,.99-1.82,1.2-3.92,.61-5.91-.21-.72-.4-1.41-.57-2.09-.2-.78-.37-1.53-.52-2.27-.11-.56-.23-1.11-.31-1.66-.08-.49-.15-1-.22-1.48-.39-3.12-.35-5.86,.11-8.39,.22-1.15,.49-2.16,.85-3.11,.33-.89,.72-1.74,1.21-2.58,.58-1.01,1.26-1.94,2.08-2.85,.66-.74,1.41-1.43,2.2-2.08,.19-.15,.38-.3,.57-.44-.71-.26-1.4-.52-2.04-.76l-2.32-.86Z" fill="#131313"/><path d="M280.19,90.51c-5.26,0-9.54,4.28-9.54,9.53s4.28,9.53,9.54,9.53,9.53-4.28,9.53-9.53-4.28-9.53-9.53-9.53Z" fill="#131313"/><path d="M276.41,77.32c1.96-.03,3.83-.77,5.25-2.1,1.15-1.09,1.86-2.31,2.23-3.83,.48-2.01,.15-4.1-.94-5.86-1.09-1.77-2.8-3.01-4.82-3.49-.72-.17-1.41-.35-2.09-.55-.77-.22-1.51-.44-2.23-.68-.53-.18-1.07-.37-1.6-.57-.45-.16-.93-.35-1.39-.55-2.89-1.21-5.24-2.62-7.2-4.29-.89-.77-1.63-1.52-2.27-2.29-.61-.73-1.14-1.49-1.63-2.33-.6-1.04-1.06-2.09-1.44-3.25-.31-.93-.53-1.93-.69-2.95-.04-.23-.07-.47-.1-.71-.58,.49-1.14,.95-1.66,1.38l-1.92,1.59c-2.75,2.31-6.2,4.29-10.27,5.88,.07,.19,.13,.38,.2,.57,.64,1.79,1.45,3.56,2.43,5.25,1.21,2.11,2.7,4.1,4.41,5.93,.56,.61,1.16,1.17,1.76,1.73l1.07,.94c.63,.54,1.11,.96,1.62,1.34,2.51,1.92,5.39,3.61,8.56,5.04,3.27,1.46,6.93,2.68,10.85,3.62,.5,.11,1.03,.17,1.69,.17h.18Z" fill="#131313"/><path d="M275.76,48.16c4.41,2.54,10.5,.89,13.02-3.49,2.63-4.56,1.07-10.4-3.49-13.03-1.44-.84-3.09-1.28-4.75-1.28-3.41,0-6.58,1.82-8.28,4.77-1.27,2.2-1.61,4.77-.95,7.23,.66,2.46,2.24,4.52,4.44,5.79Z" fill="#131313"/><path d="M221.33,36.04c.63,3.55,.62,7.54-.04,11.84,.2,.04,.39,.08,.59,.11,4.28,.79,8.8,.67,13.1-.33,.8-.18,1.59-.41,2.37-.65l1.36-.45c.8-.28,1.39-.49,1.97-.73,2.93-1.23,5.84-2.88,8.65-4.9,2.89-2.08,5.77-4.63,8.57-7.59,.37-.39,.72-.88,1.09-1.54,.95-1.71,1.24-3.7,.8-5.59-.37-1.55-1.06-2.77-2.2-3.86-1.44-1.37-3.33-2.12-5.31-2.12-2.31,.06-4.24,.92-5.66,2.43-.5,.53-1.01,1.05-1.51,1.54-.58,.57-1.15,1.09-1.72,1.59-.42,.38-.85,.75-1.29,1.1-.36,.31-.77,.63-1.17,.93-2.51,1.9-4.9,3.23-7.32,4.09-1.1,.39-2.12,.65-3.11,.82-2.07,.35-4.18,.32-6.35-.13-.97-.21-1.94-.5-2.91-.88-.22-.08-.44-.17-.66-.27,.14,.76,.26,1.49,.38,2.18l.4,2.39Z" fill="#131313"/><path d="M233.38,17.79c4.56-2.62,6.12-8.47,3.49-13.02-1.7-2.94-4.87-4.77-8.28-4.77-1.66,0-3.3,.44-4.75,1.28-2.2,1.27-3.78,3.33-4.44,5.79-.66,2.46-.32,5.03,.95,7.23,2.53,4.37,8.62,6.04,13.02,3.49Z" fill="#131313"/></g><path d="M650.59,24.38c0-7.85,6.12-13.54,13.63-13.54s13.8,5.69,13.8,13.54-6.21,13.45-13.8,13.45-13.63-5.69-13.63-13.45Zm24.84,0c0-6.73-4.74-11.29-11.21-11.29s-11.04,4.57-11.04,11.29,4.66,11.04,11.04,11.04,11.21-4.48,11.21-11.04Zm-5,7.5h-3.45l-2.5-3.71h-2.25v3.71h-3.19v-15.35h4.83c4.57,0,6.73,2.68,6.73,5.86,0,2.24-1.12,4.06-3.1,5l2.93,4.48Zm-6.64-6.21c2.59,0,3.62-1.21,3.62-3.19s-1.03-3.28-3.62-3.28h-1.55v6.47h1.55Z" fill="#131313"/>
</svg>
