<svg xmlns="http://www.w3.org/2000/svg" viewBox="0 0 435.26 356.88" width="436" height="357"><path d="M218.83,298.95c-27.43,0-51.34-6.07-71.08-18.04H8.43c-4.65,0-8.43-3.95-8.43-8.81v-70.11c0-3.13,1.6-6.23,4.49-8.73l1.28-1.11H80.93c.25-.26,.51-.53,.8-.81-3.88-13.74-5.84-27.98-5.84-42.38C75.89,66.82,139.47,0,217.63,0s141.75,66.82,141.75,148.96c0,14.2-1.91,28.25-5.67,41.79,.29,.27,.58,.54,.85,.82h72.28c4.65,0,8.42,3.95,8.42,8.81v71.71c0,4.86-3.78,8.81-8.42,8.81h-136.93c-19.72,11.97-43.63,18.04-71.08,18.04ZM9.11,271.79H150.35l1.11,.69c18.48,11.52,41.15,17.35,67.38,17.35s48.91-5.84,67.38-17.35l1.11-.69h138.83v-71.11s-80.32,0-80.32,0l1.2-3.64c-.34-.28-.76-.63-1.29-1.03l-2.5-1.91,.9-3.02c4.07-13.6,6.14-27.77,6.14-42.12,0-77.11-59.5-139.84-132.64-139.84S85,71.85,85,148.96c0,14.49,2.11,28.8,6.27,42.55l.87,2.88-2.31,1.93c-.84,.71-1.43,1.24-1.83,1.63l.39,3.3H9.43c-.22,.32-.32,.58-.32,.72v69.82Zm78.14-73.04h0Z" fill="#fff"/><path d="M354.82,148.96c0,79.74-61.42,144.39-137.19,144.39S80.44,228.69,80.44,148.96,141.86,4.56,217.63,4.56s137.19,64.65,137.19,144.4Z" fill="#131313"/><path d="M271.72,148.95c0,31.44-24.21,56.93-54.09,56.93s-54.08-25.49-54.08-56.93,24.21-56.93,54.08-56.93,54.09,25.48,54.09,56.93Z" fill="#414042" stroke="#fff" stroke-width="7.98"/><path d="M217.63,202.47c-28.1,0-50.95-24.01-50.95-53.51s22.86-53.52,50.95-53.52,50.96,24.01,50.96,53.52-22.86,53.51-50.96,53.51Zm0-102.47c-25.58,0-46.4,21.96-46.4,48.96s20.81,48.96,46.4,48.96,46.41-21.96,46.41-48.96-20.82-48.96-46.41-48.96Z"/><path d="M426.83,196.12h-74.5s-.02,.02-.03,.02c0,0-.02-.01-.03-.02h-.15s0-.08,0-.12c-8.59-7.3-66.87-38.17-134.95-38.26-81.01-.1-133.9,38.95-133.9,38.95H7.47c-1.18,1.01-2.91,2.92-2.91,5.28v70.11c0,2.35,1.74,4.26,3.88,4.26H149.04c20.45,12.74,44.3,18.04,69.79,18.04s49.34-5.3,69.79-18.04h138.22c2.14,0,3.87-1.91,3.87-4.26v-71.71c0-2.35-1.73-4.26-3.87-4.26Z" fill="#131313"/><g><path d="M53.49,215.74c4.62,0,8.96,1.32,11.28,5.3l6.28-4.67c-3.29-5.74-9.9-8.41-16.49-8.41-15.47,0-27.75,12.09-29.94,28.91-1.77,13.61,6.21,28,22.17,28,11.49,0,18.47-7.27,20.24-9.48l-5.14-4.67c-3.56,4.51-8.53,6.37-14.27,6.37-11.7,0-16.28-8.47-14.79-19.86,1.6-12.32,9.38-21.48,20.66-21.48Z" fill="#fff"/><path d="M92.9,221.36c-5.16,0-11.05,1.89-15.47,5.76l3.6,4.61c2.86-2.05,5.75-4.45,11.15-4.45,6.02,0,8.27,4.2,7.73,8.24l-.22,1.64h-5.16c-11.26,0-20.86,3.46-22.21,13.49-1,7.57,4.39,11.69,11.27,11.69,5.62,0,10.1-1.89,13.9-6.91h.15c-.26,1.97-.45,3.95-.55,5.92h6.26c.04-2.06,.27-4.36,.63-7.07l2.66-19.91c.9-6.75-2.8-13-13.74-13Zm5.75,23.7c-.7,5.26-4.25,11.36-12.07,11.36-4.84,0-7.72-1.89-7.13-6.34,.84-6.26,9.13-7.49,15.78-7.49h3.76l-.33,2.47Z" fill="#fff"/><path d="M134.17,221.36c-4.61,0-9.69,2.88-12.03,6.99h-.16l.8-6h-7.04l-5.2,38.99h7.04l2.61-19.58c1.14-8.56,5.42-12.51,12.3-12.51,1.1,0,2.24,.25,3.37,.58l1.38-7.99c-.9-.33-1.96-.49-3.06-.49Z" fill="#fff"/><path d="M162.16,221.36c-5.32,0-10.73,2.55-13.78,6.59h-.15l3.84-28.8h-7.04l-8.3,62.2h7.04l.74-5.59h.16c2.17,4.2,7.01,6.58,12.01,6.58,11.5,0,20.04-8.97,21.58-20.49,1.56-11.68-4.69-20.49-16.1-20.49Zm8.6,20.49c-1.06,7.9-6.5,13.58-14.01,13.58s-11.43-5.68-10.38-13.58c1.06-7.9,6.5-13.57,14.01-13.57s11.44,5.67,10.38,13.57Z" fill="#fff"/><path d="M203.71,221.36c-11.03,0-20.92,9.13-22.44,20.49-1.51,11.36,5.95,20.49,16.97,20.49s20.92-9.13,22.43-20.49c1.52-11.36-5.94-20.49-16.96-20.49Zm9.46,20.49c-1.06,7.9-6.5,13.58-14.01,13.58s-11.44-5.68-10.39-13.58c1.06-7.9,6.5-13.57,14.01-13.57s11.44,5.67,10.39,13.57Z" fill="#fff"/><path d="M250.48,238.31l-3.07,23.04h7.03l3.35-25.1c1.39-10.36-4.26-14.89-11.45-14.89-5.71,0-10.78,2.88-13.13,6.99h-.16l.8-6h-7.04l-5.21,38.99h7.03l2.68-20.07c1.21-9.05,6.19-13,12.06-13,4.45,0,8.08,2.71,7.1,10.03Z" fill="#fff"/><path d="M326.41,222.28c-5.47,0-10.57,5.17-13.64,9.37l-.18-.2,2.14-8.97-26.6-.02,3.24-18.72c1.39-6.85,4.56-12.21,9.43-12.21,.99,0,4.95,.23,2.77,2.39-.89,.92-1.98,2.74-1.79,4.57,.3,3.19,1.79,5.25,4.67,5.25,3.27,0,5.35-2.06,5.35-5.93,0-6.28-5.66-9.13-10.42-9.13-2.78,0-4.66,.68-6.25,1.49-10.52,5.36-14.98,20.31-17.86,32.3h-9.91l-.82,3.48h9.92s-3.29,20.04-7.6,32.8c-3.86,11.43-8.93,17.53-12.9,17.64-.83,0-2.4,0-2.4-1.38,0-.64,.37-.96,.73-1.49,.37-.53,.75-1.27,.75-2.55,0-2.76-2.21-4.25-4.34-4.25-2.49,0-4.33,2.34-4.33,5.1,0,4.14,3.49,7.22,7.01,7.22,6.92,0,13.67-4.81,16.69-8.61,2.81-3.54,6.5-7.77,10.41-18.7,3.98-11.14,7.02-25.79,7.02-25.79h16.72l-7.21,35.57h9.55l3.71-16.88c.55-2.63,1.49-6.44,2.87-8.78,1.39-2.35,5.01-8.2,7.98-8.2,1.39,0,1.86,1.27,2.6,2.54,.74,1.27,1.67,2.54,3.99,2.54,2.68,0,4.72-1.85,4.72-4.79,0-3.8-2.69-5.65-6.02-5.65Z" fill="#fff"/><path d="M349.15,245.11c5.66,0,8.43-.58,10.95-2.05,3.8-2.24,6.95-5.07,6.95-10.05,0-7.52-6.49-10.73-12.7-10.73-12.15,0-23,12.39-23,24.88,0,8.59,7.32,15.81,15.3,15.81,8.62,0,14.65-3.32,19.01-11.32l-1.95-.98c-3.25,5.77-8.44,9.86-15.02,9.86-4.08,0-7.7-2.34-7.7-6.93,0-3.03,.28-5.86,1.3-8.5h6.86Zm4.72-20.39c3.52,0,5.02,2.82,5.02,6.35,0,8.68-5.2,11.61-12.71,11.61h-3.43c2.04-5.95,3.06-17.96,11.12-17.96Z" fill="#fff"/><path d="M388,245.11c5.66,0,8.44-.58,10.94-2.05,3.8-2.24,6.96-5.07,6.96-10.05,0-7.52-6.5-10.73-12.71-10.73-12.15,0-22.99,12.39-22.99,24.88,0,8.59,7.32,15.81,15.3,15.81,8.62,0,14.64-3.32,19-11.32l-1.94-.98c-3.25,5.77-8.44,9.86-15.02,9.86-4.09,0-7.7-2.34-7.7-6.93,0-3.03,.28-5.86,1.3-8.5h6.86Zm4.73-20.39c3.53,0,5.01,2.82,5.01,6.35,0,8.68-5.19,11.61-12.71,11.61h-3.43c2.04-5.95,3.06-17.96,11.13-17.96Z" fill="#fff"/><path d="M410.22,209.83h-.03c-2.86,0-5.15,2.31-5.15,5.26s2.28,5.29,5.15,5.29,5.12-2.34,5.12-5.29-2.25-5.26-5.09-5.26Zm0,9.46c-2.22,0-3.9-1.86-3.9-4.2s1.67-4.2,3.84-4.2h.03c2.19,0,3.84,1.89,3.84,4.23s-1.64,4.2-3.81,4.17Z" fill="#fff"/><path d="M411.35,215.25v-.06c.58-.19,1.04-.61,1.04-1.25,0-.51-.21-.9-.52-1.12-.33-.26-.76-.42-1.71-.42-.82,0-1.46,.1-1.92,.16v5.26h1.16v-2.08h.55c.64,0,.94,.26,1.04,.8,.15,.64,.24,1.09,.4,1.28h1.22c-.09-.19-.21-.48-.37-1.28-.15-.71-.4-1.12-.88-1.28Zm-1.37-.38h-.55v-1.51c.12-.03,.33-.06,.64-.06,.73,0,1.07,.32,1.07,.8,0,.54-.52,.77-1.16,.77Z" fill="#fff"/></g><g><g><path d="M84.4,321.89c-1.35-1.7-3.3-2.66-5.83-2.66-5.14,0-8.92,4.39-8.92,10.44s3.78,10.44,8.7,10.44c2.75,0,4.97-1.29,6.36-3.49l5.66,4.45c-2.56,3.84-6.92,5.63-11.14,5.63-9.62,0-16.62-6.64-16.62-17.04s7-17.04,16.62-17.04c3.44,0,7.79,1.24,10.4,4.76l-5.22,4.49Z" fill="#414042"/><path d="M105.42,343.09h-.09c-1.43,2.39-4.05,3.35-6.7,3.35-3.96,0-7.53-2.38-7.53-6.87,0-7.68,8.88-7.83,14.32-7.83,0-2.42-1.92-3.99-4.18-3.99-2.13,0-3.92,1.02-5.31,2.67l-3.48-3.76c2.39-2.38,5.87-3.57,9.31-3.57,7.62,0,9.66,4.08,9.66,11.5v11.31h-6v-2.8Zm-1.62-6.96c-2,0-6.43,.19-6.43,3.21,0,1.65,1.65,2.43,3.08,2.43,2.57,0,4.97-1.42,4.97-4.17v-1.47h-1.62Z" fill="#414042"/><path d="M114.43,323.63h6.52v3.58h.09c1.39-2.7,3.22-4.13,6.09-4.13,.75,0,1.57,.05,2.19,.23v6.27c-.92-.27-1.84-.45-2.79-.45-4.96,0-5.57,3.02-5.57,7.46v9.3h-6.52v-22.26Z" fill="#414042"/><path d="M131.66,311.26h6.53v14.75h.08c1.48-2.15,4.01-2.93,6.7-2.93,6,0,9.66,5.68,9.66,11.86,0,6.74-4.13,11.5-10.39,11.5-2.97,0-5.49-1.88-6.49-3.48h-.08v2.93h-6.01v-34.63Zm11.23,29.13c3.27,0,5.22-2.29,5.22-5.62s-1.95-5.63-5.22-5.63-5.22,2.29-5.22,5.63,1.95,5.62,5.22,5.62Z" fill="#414042"/><path d="M168.35,323.08c6.52,0,11.75,4.58,11.75,11.68s-5.23,11.67-11.75,11.67-11.75-4.58-11.75-11.67,5.22-11.68,11.75-11.68Zm0,17.31c3.26,0,5.21-2.29,5.21-5.62s-1.95-5.63-5.21-5.63-5.22,2.29-5.22,5.63,1.96,5.62,5.22,5.62Z" fill="#414042"/><path d="M182.84,323.63h6.26v3.03h.09c.87-1.74,3-3.57,6.18-3.57,6.61,0,7.83,4.58,7.83,10.54v12.27h-6.53v-10.9c0-2.56-.05-5.86-3.39-5.86s-3.92,2.8-3.92,5.67v11.09h-6.52v-22.26Z" fill="#414042"/><path d="M208.98,329.13h-4.31v-5.5h4.31v-3.94c0-4.85,1.17-8.97,8.26-8.97,1.31,0,2.61,.09,3.83,.41l-.31,5.81c-.73-.27-1.34-.45-2.13-.45-2.1,0-3.13,.69-3.13,3.62v3.52h4.83v5.5h-4.83v16.76h-6.53v-16.76Z" fill="#414042"/><path d="M242.1,345.88h-6.27v-3.02h-.08c-.87,1.74-3,3.57-6.18,3.57-6.61,0-7.83-4.58-7.83-10.53v-12.28h6.53v10.91c0,2.56,.03,5.85,3.39,5.85s3.92-2.79,3.92-5.67v-11.09h6.52v22.26Z" fill="#414042"/><path d="M245.63,323.63h6.26v3.03h.09c.88-1.74,3-3.57,6.18-3.57,6.62,0,7.83,4.58,7.83,10.54v12.27h-6.52v-10.9c0-2.56-.04-5.86-3.4-5.86s-3.92,2.8-3.92,5.67v11.09h-6.52v-22.26Z" fill="#414042"/><path d="M291.71,345.88h-6.01v-2.93h-.08c-1,1.6-3.52,3.48-6.48,3.48-6.27,0-10.4-4.76-10.4-11.5,0-6.18,3.65-11.86,9.66-11.86,2.7,0,5.23,.78,6.71,2.93h.09v-14.75h6.53v34.63Zm-11.23-16.76c-3.26,0-5.22,2.29-5.22,5.63s1.96,5.62,5.22,5.62,5.23-2.29,5.23-5.62-1.96-5.63-5.23-5.63Z" fill="#414042"/><path d="M299.97,337.74c2.22,0,4,1.87,4,4.21s-1.78,4.22-4,4.22-4.01-1.88-4.01-4.22,1.79-4.21,4.01-4.21Z" fill="#414042"/><path d="M318.6,323.08c6.53,0,11.75,4.58,11.75,11.68s-5.21,11.67-11.75,11.67-11.75-4.58-11.75-11.67,5.22-11.68,11.75-11.68Zm0,17.31c3.27,0,5.22-2.29,5.22-5.62s-1.95-5.63-5.22-5.63-5.22,2.29-5.22,5.63,1.95,5.62,5.22,5.62Z" fill="#414042"/><path d="M333.09,323.63h6.52v3.58h.09c1.39-2.7,3.22-4.13,6.09-4.13,.73,0,1.57,.05,2.17,.23v6.27c-.91-.27-1.82-.45-2.79-.45-4.96,0-5.57,3.02-5.57,7.46v9.3h-6.52v-22.26Z" fill="#414042"/><path d="M371.9,344.01c0,8.38-4.05,12.87-12.24,12.87-3.74,0-7.57-.69-10.61-3.25l3.61-5.68c1.99,1.79,4.22,2.89,6.88,2.89,3.95,0,5.83-2.29,5.83-5.45v-2.15h-.09c-1.48,2.15-4.01,2.94-5.96,2.94-6.27,0-10.4-4.77-10.4-11.5,0-5.91,3.65-11.59,9.66-11.59,3.7,0,6.23,1.88,7.22,3.48h.08v-2.93h6.01v20.38Zm-11.23-3.89c2.96,0,5.21-2.61,5.21-5.5s-2.25-5.49-5.21-5.49-5.22,2.6-5.22,5.49,2.26,5.5,5.22,5.5Z" fill="#414042"/></g><path d="M428.92,343.44c1.65,.34,1.65,.17,1.65,.34s-.17,.69-1.65,.69h-49.32c-.5,0-.99,0-.99-.17s.16-.35,.66-.69c2.97-1.39,4.95-4.69,5.28-6.07,0-.87,.17-1.04,.33-1.21h1.15l42.89,7.12Z" fill="#414042"/><path d="M48.16,336.32h1.15c.16,.17,.33,.34,.33,1.21,.33,1.38,2.31,4.69,5.28,6.07,.49,.34,.66,.52,.66,.69s-.5,.17-.99,.17H5.27c-1.48,0-1.65-.52-1.65-.69s0,0,1.65-.34l42.89-7.12Z" fill="#414042"/></g><g><path d="M119.45,80.43l5.52-7.65c1.75-2.49,5-7.22,9.76-6.63,3.37,.44,9.79,5.57,11.07,8.85,1.77,4.45-2.09,9.2-3.56,11.24l-.46,.64,13.79,11.02-5.21,7.22-30.9-24.71Zm16.72,1.98c.62-.86,.82-1.14,1.06-1.69,.6-1.21,.59-1.78-.03-2.78-.48-.89-2.67-2.53-3.5-2.57-1.47-.05-2.45,1.31-3.27,2.46l5.74,4.59Z" fill="#fff"/><path d="M162.98,88.67l-.4-.53s-7.91-10.18-11.84-16.98c-3.83-6.66-6.76-18.77-6.76-18.77l6.04-5.06c5.09,2.05,10.51,5.77,15.81,11.2,5.4,5.57,13.08,15.95,13.08,15.95,.08,.11,.4,.53,.4,.53l-6.58,5.5-.45-.6-3.4-4.5-3.17,2.65,3.85,5.09-6.58,5.5Zm-9.91-30.36s.63,1.77,1.07,2.72c1.01,2.13,1.75,3.47,2.99,5.47,1.14,1.8,3.1,4.69,3.1,4.69,.27,.35,.63,.91,.79,1.12l3.2-2.68c-.16-.21-.62-.68-.89-1.03,0,0-2.2-2.69-3.64-4.24-1.57-1.72-2.64-2.78-4.39-4.3-.78-.67-2.24-1.74-2.24-1.74Z" fill="#fff"/><path d="M172.12,34.32l9.67-3.52c2.98-1.08,6.59-2.87,10.24,.27,2.88,2.47,5.76,10.4,5.18,13.6-.31,1.68-.68,2.34-1.11,2.68l9.23,18.11-8.3,3.02-8.13-16.94c-.4,.29-1.01,.51-1.77,.79l5.79,17.65-8.14,2.96-12.66-38.61Zm12.75,11.08c.73-.26,1.2-.48,1.68-.8,.72-.41,1.45-1.09,1.54-2.18,.07-1.02-.7-3.5-1.5-4.16-1.18-.85-2-.6-4,.17l2.28,6.96Z" fill="#fff"/><path d="M224.35,24.36l.34,7.58-4.98,.25,1.51,33.22-8.6,.43-1.51-33.22-4.98,.25-.35-7.58,18.57-.94Z" fill="#fff"/><path d="M237.74,26.27l7.59,1.89c.33,.31,.44,.57,.62,.94,.39,.98,2.02,5.62,2.38,7.74l1.69-7.51,8.38,2.09-8.93,39.75-8.38-2.09,1.53-6.81c1.15-5.11,1.45-10.16,.88-15.42l-.55-4.38-5.59,24.85-.18,.79-8.38-2.09,8.93-39.75Z" fill="#fff"/><path d="M289.85,49.67l-3.78,6.46-7.81-5.06-3.53,6.04,7.23,4.68-3.78,6.46-7.23-4.68-5.48,9.36,7.66,4.97,.15,.09-3.78,6.46-15.14-9.81,20.34-34.78,15.14,9.81Z" fill="#fff"/><path d="M303.15,62.56l6.6,8.23c2.04,2.54,4.92,5.44,3.45,10.15-1.15,3.72-7.14,9.4-10.19,9.99-1.6,.3-2.31,.18-2.77-.12l-12.72,15.59-5.66-7.07,12.09-14.08c-.4-.29-.81-.81-1.33-1.46l-13.56,12.04-5.56-6.93,29.66-26.34Zm-5.23,16.51c.49,.62,.86,1,1.31,1.36,.62,.56,1.49,1.02,2.48,.73,.93-.3,2.85-1.94,3.14-2.97,.33-1.47-.19-2.18-1.59-3.87l-5.35,4.75Z" fill="#fff"/></g><g><path d="M105.17,128.77v-3.25c0-3.32,.76-5.81,2.28-7.47,1.52-1.66,3.8-2.49,6.82-2.49s5.2,.82,6.76,2.47c1.56,1.64,2.34,4.01,2.34,7.1,0,1.94-.26,3.68-.78,5.24-.52,1.55-1.34,3.04-2.47,4.46-.44,.55-1.11,1.33-2,2.32-2.2,2.47-3.52,4.47-3.96,5.98h9.25v6.35h-18.38c-.03-.16-.05-.34-.06-.53,0-.19-.01-.46-.01-.82,0-2.36,.54-4.75,1.62-7.18,1.08-2.42,2.71-4.88,4.9-7.37,.23-.28,.56-.65,1-1.12,2.26-2.47,3.39-4.97,3.39-7.5,0-1.33-.11-2.17-.34-2.51-.23-.34-.65-.51-1.27-.51s-1.02,.18-1.25,.54c-.23,.36-.34,1.23-.34,2.61v3.69h-7.52Z" fill="#fff"/><path d="M144.19,125.53v14.45c0,3.32-.76,5.81-2.27,7.46-1.51,1.65-3.78,2.48-6.81,2.48s-5.35-.83-6.87-2.49c-1.52-1.66-2.28-4.14-2.28-7.45v-14.45c0-3.3,.76-5.79,2.28-7.46,1.52-1.67,3.81-2.5,6.87-2.5s5.3,.83,6.81,2.49,2.27,4.15,2.27,7.47Zm-10.69-.44v15.33c0,1.38,.11,2.25,.34,2.61,.23,.36,.65,.54,1.27,.54,.59,0,1-.18,1.23-.54,.24-.36,.35-1.23,.35-2.61v-15.33c0-1.4-.11-2.27-.34-2.62-.23-.35-.64-.52-1.25-.52s-1.02,.18-1.26,.54c-.24,.36-.35,1.23-.35,2.61Z" fill="#fff"/></g><g><path d="M292.41,128.77v-3.25c0-3.32,.76-5.81,2.28-7.47,1.52-1.66,3.8-2.49,6.82-2.49s5.2,.82,6.76,2.47c1.56,1.64,2.34,4.01,2.34,7.1,0,1.94-.26,3.68-.78,5.24-.52,1.55-1.34,3.04-2.47,4.46-.44,.55-1.11,1.33-2,2.32-2.2,2.47-3.52,4.47-3.96,5.98h9.25v6.35h-18.38c-.03-.16-.05-.34-.06-.53,0-.19-.01-.46-.01-.82,0-2.36,.54-4.75,1.62-7.18,1.08-2.42,2.71-4.88,4.9-7.37,.23-.28,.56-.65,1-1.12,2.26-2.47,3.39-4.97,3.39-7.5,0-1.33-.11-2.17-.34-2.51-.23-.34-.65-.51-1.27-.51s-1.02,.18-1.25,.54c-.23,.36-.34,1.23-.34,2.61v3.69h-7.52Z" fill="#fff"/><path d="M313.29,128.77v-3.25c0-3.32,.76-5.81,2.28-7.47,1.52-1.66,3.8-2.49,6.82-2.49s5.2,.82,6.76,2.47c1.56,1.64,2.34,4.01,2.34,7.1,0,1.94-.26,3.68-.78,5.24-.52,1.55-1.34,3.04-2.47,4.46-.44,.55-1.11,1.33-2,2.32-2.2,2.47-3.52,4.47-3.96,5.98h9.25v6.35h-18.38c-.03-.16-.05-.34-.06-.53,0-.19-.01-.46-.01-.82,0-2.36,.54-4.75,1.62-7.18,1.08-2.42,2.71-4.88,4.9-7.37,.23-.28,.56-.65,1-1.12,2.26-2.47,3.39-4.97,3.39-7.5,0-1.33-.11-2.17-.34-2.51-.23-.34-.65-.51-1.27-.51s-1.02,.18-1.25,.54c-.23,.36-.34,1.23-.34,2.61v3.69h-7.52Z" fill="#fff"/></g><path d="M81.13,186.07l.52,5.04,1.63,5.58s52.89-39.06,133.9-38.95c68.53,.09,127.13,31.37,135.12,38.4,.98-.44,1.32-4.01,1.32-4.01,.62-1.85,.72-3.29,.94-5.36-5.79-8.6-67.23-40.18-137.39-40.18-76.78,0-128.92,31.13-136.05,39.49Z" fill="#fff"/></svg>