<svg xmlns="http://www.w3.org/2000/svg" viewBox="0 0 511.7 675.29" width="512" height="676"><path d="M258.46,253.54c16.05,0,201.73-165.78,143.71-213.13-73.9-60.37-146.18,153.65-146.18,153.65,0,0-60.01-209.91-147.51-147.54-53.87,35.2,133.99,207.01,149.98,207.01Z" fill="#131313"/><path d="M45.9,520.85c-.13-1.14-1.27-2.03-2.28-1.78-2.92,4.31-6.72,7.61-14.07,7.61-13.57,0-20.41-11.79-20.41-21.68,0-13.44,8.62-20.41,17.5-20.41,5.2,0,9.89,3.3,12.68,6.72,.51,.63,1.14,.89,1.77,.89,1.52,0,2.79-2.41,2.79-4.69,0-2.16-.89-4.18-1.9-5.07-3.42-1.52-8.37-2.15-11.28-2.15-21.04,0-30.68,14.58-30.68,28.27,0,8.24,2.92,14.45,7.35,18.77,4.44,4.31,10.65,6.47,17.37,6.47,7.36,0,16.86-3.55,21.17-12.93Z" fill="#131313"/><path d="M63.27,532.01c4.44,0,8.12,.13,14.07,.38,.89-.38,1.14-2.53,.25-3.17l-4.57-.38c-4.82-.38-5.07-1.9-5.07-11.03v-17.24c0-4.31,.38-7.99,1.65-9.76,1.02-1.39,2.53-2.53,4.56-2.53,1.77,0,3.68,.76,5.58,2.03,.89,.51,1.52,.89,2.79,.89,2.03,0,5.45-1.65,5.45-5.83,0-3.04-2.53-5.07-5.7-5.07-4.69,0-9.51,3.93-13.95,7.61-.25-.13-.38-.51-.38-1.14v-7.35c0-.51-.38-.76-1.02-.89-3.17,1.9-9.89,5.2-12.8,6.21-.64,.38-.64,1.77-.13,2.28l1.14,.76c3.42,2.28,3.42,2.91,3.42,7.86v22.19c0,9.13-.13,10.27-4.82,11.03l-2.41,.38c-.89,.64-.63,2.79,.25,3.17,3.3-.25,7.1-.38,11.66-.38Z" fill="#131313"/><path d="M135.51,535.05c4.31-2.41,11.66-3.68,16.61-4.69,1.02-.51,.89-3.04,.13-3.68-1.77,.38-3.42,.63-4.94,.63-3.55,0-3.93-3.8-3.93-13.82v-21.3c0-4.69,.13-8.62,.38-11.03-.13-.51-.51-.76-1.14-.89-2.79,1.27-9.76,2.15-14.84,2.28-1.01,.51-1.01,2.28-.13,2.79l1.65,.63c3.8,1.52,4.69,1.78,4.69,10.02v20.8c0,3.93-.89,5.83-2.53,7.35-2.79,2.41-6.85,3.8-10.27,3.8-9.64,0-11.79-5.83-11.79-14.58v-21.17c0-6.21,.13-8.88,.38-11.03-.13-.51-.51-.76-1.27-.89-2.79,1.02-7.74,2.15-13.57,2.28-.89,.38-1.02,2.15-.26,2.79l1.52,.63c3.8,1.65,3.8,2.79,3.8,10.78v21.18c0,10.27,4.18,15.85,15.34,15.85,7.48,0,13.69-4.18,17.5-6.59,.76,0,1.14,.63,1.14,1.77v5.2c.25,.51,.89,.89,1.52,.89Z" fill="#131313"/><path d="M170.63,499.55h23.45c5.33,0,7.1-.13,7.48-.89,.25-.51,.51-1.52,.51-3.3,0-7.61-7.1-15.09-18.01-15.09-15.22,0-25.49,13.06-25.49,28.65,0,5.58,1.52,11.54,5.33,16.48,3.68,4.82,10.14,8.37,18.38,8.37,6.59,0,15.72-3.17,19.9-11.79-.12-1.14-1.01-1.9-2.28-1.52-3.93,4.94-7.48,6.21-11.67,6.21-13.56,0-21.05-10.9-21.05-23.71,0-3.17,.13-3.42,3.42-3.42Zm12.04-15.47c7.35,0,9.76,4.44,9.76,7.99,0,1.65-.38,2.15-.76,2.41-1.02,.76-3.8,1.27-13.19,1.27h-9c-.89,0-.89-.38-.89-.64,.13-4.18,6.59-11.03,14.07-11.03Z" fill="#131313"/><path d="M210.69,528.84l-2.92,.38c-.89,.64-.63,2.79,.25,3.17,3.8-.25,7.61-.38,12.17-.38s8.11,.13,12.3,.38c.89-.38,1.14-2.53,.25-3.17l-3.04-.38c-4.57-.63-4.82-1.9-4.82-11.03v-59.97c0-5.58,.25-11.92,.38-15.72-.25-.51-.76-.76-1.27-.76-4.56,2.41-10.52,4.31-13.69,5.33-.63,.38-.63,2.16,0,2.54l1.27,.76c3.8,2.28,3.93,3.04,3.93,10.52v57.31c0,9.13-.13,10.4-4.82,11.03Z" fill="#131313"/><path d="M258.49,487.38h14.32c1.14-.76,1.39-4.19-.13-5.33h-14.07c-2.15,0-2.28-.13-2.28-2.41v-5.71c-.51-.89-2.03-.89-2.67-.63-1.27,2.53-3.67,5.96-5.32,7.48-1.27,1.14-4.44,2.79-8.11,3.93-.51,.76-.38,2.16,.38,2.66h3.55c2.54,0,2.66,.25,2.66,3.68v29.04c0,7.61,2.28,13.69,13.19,13.69,6.47,0,11.03-3.17,13.31-5.83,.25-.76-.25-2.16-1.27-2.16-.38,0-2.03,1.39-3.17,1.78-1.01,.38-2.15,.63-3.42,.63-8.37,0-9.25-6.72-9.25-14.07v-23.71c0-2.66,.13-3.04,2.28-3.04Z" fill="#131313"/><path d="M329.99,485.22l2.16-.38c.89-.76,.76-2.66-.25-3.17-3.55,.25-6.47,.38-9.64,.38s-7.1-.13-11.16-.38c-1.01,.38-1.14,2.53-.25,3.17l3.93,.63c2.28,.38,3.04,1.27,3.04,2.16,0,1.39-1.65,6.09-4.44,12.68l-4.31,10.02c-2.28,5.2-4.31,9.13-4.69,9.38-.51-.25-2.92-6.97-3.68-9l-4.05-11.67c-.76-2.16-3.68-10.4-3.68-11.92,0-.89,1.01-1.27,2.79-1.65l3.17-.63c.89-.63,.76-2.79-.25-3.17-4.05,.25-7.6,.38-11.03,.38-4.18,0-7.99-.13-12.04-.38-1.01,.38-1.14,2.53-.38,3.17l3.17,.63c4.44,.89,5.32,3.93,7.48,9.89l9.89,27.13c1.64,4.69,2.15,6.21,2.15,8.75,0,1.77-.89,4.44-1.27,5.45-1.14,3.04-3.68,8.37-7.36,14.07-.89,1.39-2.16,2.28-4.19,2.28h-2.41c-2.79,0-5.07,1.65-5.07,5.07,0,3.17,1.9,5.45,5.58,5.45,2.92,0,5.96-1.14,8.11-5.96,6.21-13.82,16.61-35.88,20.79-44.38l7.1-14.58c4.31-9,6.59-12.68,10.77-13.44Z" fill="#131313"/><path d="M357.38,482.05c-2.67,0-2.79-.25-2.79-4.06v-3.8c0-19.02,3.42-27.64,7.73-27.64,3.04,0,5.83,2.54,9.89,8.37,.76,1.01,1.77,1.77,3.68,1.77,3.04,0,6.22-2.53,6.22-6.09,0-5.32-5.71-9.26-14.46-9.26-11.92,0-20.41,7.74-23.71,17.75-2.16,6.47-2.66,12.68-2.66,18.13v2.28c0,1.52-.89,2.28-1.77,2.79l-5.45,2.79c-.89,.76-.63,2.41,.38,2.92h4.57c2.15,0,2.28,.38,2.28,3.8v25.1c0,9.38-.51,10.78-4.82,11.41l-2.79,.38c-.89,.89-.76,3.17,.25,3.68,5.2-.25,9.51-.38,13.69-.38,5.96,0,10.9,.13,16.61,.38,1.01-.51,1.14-2.79,.25-3.68l-4.94-.51c-4.44-.51-4.95-1.9-4.95-11.28v-24.98c0-3.68,0-3.93,2.66-3.93h12.42c1.02-.63,1.77-1.78,1.77-3.93,0-.89-.25-1.65-.76-2.03h-13.31Z" fill="#131313"/><path d="M402.51,532.39c1.01-.51,1.14-2.79,.25-3.68l-4.95-.51c-4.44-.51-4.95-1.9-4.95-11.28v-17.37c0-6.21,.76-9.13,3.68-9.13,.76,0,2.92,.25,6.08,2.41,1.01,.63,2.16,1.01,3.42,1.01,3.43,0,7.1-2.41,7.1-7.36,0-3.3-2.53-6.21-6.97-6.21s-8.49,3.8-12.43,6.59c-.76,0-1.27-.64-1.27-1.52,0-1.14,.13-3.3,.25-5.71-.25-.76-1.01-1.14-1.77-1.14-3.8,2.28-10.52,5.07-15.98,6.85-.5,.63-.5,2.41-.13,2.92l1.52,.89c3.17,1.9,3.17,3.42,3.17,9.13v18.64c0,9.38-.51,10.78-4.82,11.41l-2.28,.38c-.89,.89-.76,3.17,.25,3.68,4.82-.25,9-.38,13.19-.38,4.69,0,9,.13,16.61,.38Z" fill="#131313"/><path d="M413.95,508.42c0,14.46,9.76,25.36,24.47,25.36,7.74,0,17.12-3.8,21.43-13.95-.13-1.14-1.52-2.41-2.79-2.03-2.92,4.69-7.1,6.34-12.17,6.34-11.28,0-19.15-9.13-19.15-20.54,0-1.52,.25-1.65,2.67-1.65h21.93c5.07,0,7.99-.51,8.75-1.65,.51-1.01,.63-1.77,.63-2.92,0-11.03-9.64-17.12-19.02-17.12-16.99,0-26.75,13.82-26.75,28.15Zm25.23-23.33c5.46,0,8.37,3.68,8.37,8.24,0,1.14-.51,2.15-1.27,2.66-.89,.51-2.53,.89-6.21,.89h-11.54c-1.52,0-1.77-.38-1.77-.89,0-2.66,3.93-10.9,12.42-10.9Z" fill="#131313"/><path d="M508.91,517.8c-2.92,4.69-7.1,6.34-12.17,6.34-11.28,0-19.14-9.13-19.14-20.54,0-1.52,.25-1.65,2.66-1.65h21.94c5.07,0,7.99-.51,8.75-1.65,.5-1.01,.64-1.77,.64-2.92,0-11.03-9.64-17.12-19.02-17.12-16.99,0-26.75,13.82-26.75,28.15s9.76,25.36,24.47,25.36c7.74,0,17.12-3.8,21.43-13.95-.12-1.14-1.52-2.41-2.79-2.03Zm-17.87-32.71c5.45,0,8.36,3.68,8.36,8.24,0,1.14-.5,2.15-1.26,2.66-.89,.51-2.54,.89-6.21,.89h-11.54c-1.52,0-1.78-.38-1.78-.89,0-2.66,3.93-10.9,12.43-10.9Z" fill="#131313"/><path d="M77.14,634.85c-.38,0-2.16,1.39-4.31,1.39-4.56,0-6.47-3.8-6.09-11.16l.89-19.78c.51-11.16-5.71-15.85-15.72-15.85-6.47,0-15.6,4.31-19.53,7.99-4.18,3.93-4.94,6.59-4.94,8.11,0,1.14,.76,2.03,2.41,2.03,2.79,0,6.34-1.14,8.11-2.28,1.4-.89,2.16-2.16,2.41-4.56,.51-3.68,3.17-5.58,6.72-5.58,6.21,0,7.99,5.58,7.73,12.04l-.12,3.3c0,1.27-.38,2.41-2.92,3.3-4.69,1.78-9.51,3.55-13.95,5.07-8.75,3.04-10.52,7.23-10.52,11.79,0,6.34,4.31,12.3,12.93,12.3,4.56,0,8.37-1.77,10.78-3.3,1.9-1.14,2.79-1.77,3.42-1.77s1.14,.63,2.03,1.52c2.41,2.66,5.96,3.55,9.13,3.55,3.93,0,10.14-2.03,12.68-5.58,.38-1.14-.51-2.53-1.14-2.53Zm-23.08-4.95c-.13,3.04-1.52,6.09-6.09,6.09-4.82,0-7.1-4.06-7.1-7.35,0-5.45,3.3-7.23,6.85-8.49,2.28-.89,4.56-1.52,5.58-1.52,.63,0,1.01,.76,1.01,2.16l-.25,9.13Z" fill="#131313"/><path d="M139.39,637.51c-4.31-.64-4.82-2.03-4.82-11.41v-19.65c0-9.89-4.82-16.99-15.09-16.99-7.86,0-11.41,3.04-17.37,6.34-.76-.13-1.14-.38-1.14-1.27,0-1.02,0-3.42,.25-5.83-.25-.51-.76-1.01-1.65-1.01-4.06,2.28-11.03,5.32-16.48,6.85-.51,.63-.51,2.41-.13,2.92l1.52,.89c3.17,1.9,3.17,3.42,3.17,9.13v18.64c0,9.38-.51,10.78-4.82,11.41l-2.79,.38c-.89,.89-.76,3.17,.25,3.68,5.32-.25,9.64-.38,13.69-.38,4.69,0,9,.13,13.44,.38,1.01-.51,1.14-2.79,.25-3.68l-1.9-.25c-4.31-.76-4.82-2.16-4.82-11.54v-16.99c0-4.69,.13-5.83,1.77-8.12,1.27-1.9,4.44-3.93,8.37-3.93,7.61,0,10.14,5.07,10.14,11.54v17.5c0,9.38-.51,10.78-4.82,11.54l-1.9,.25c-.89,.89-.76,3.17,.25,3.68,4.44-.25,8.75-.38,12.93-.38,4.69,0,9,.13,14.33,.38,1.01-.51,1.14-2.79,.25-3.68l-2.92-.38Z" fill="#131313"/><path d="M202.91,635.99c-2.16,0-3.04-3.93-3.04-15.47v-50.59c0-5.45,.13-13.31,.38-18.39-.25-.63-1.01-1.14-1.77-1.01-5.07,2.03-11.67,4.69-16.61,6.09-.89,.38-.76,2.41,0,2.92l1.78,1.14c2.79,1.65,2.92,2.54,2.92,11.03v16.61c0,1.39-.25,1.9-.76,2.03-1.65-.51-4.06-.89-7.36-.89-15.85,0-30.43,10.9-30.43,29.16,0,12.68,9,24.34,23.45,24.34,6.09,0,10.78-2.92,14.58-5.71l.64,.13c.25,.64,.25,1.65,.12,3.55l-.26,1.9c.26,.76,.89,1.27,1.52,1.4,4.56-2.03,13.56-4.18,20.03-4.82,1.4-.76,1.14-3.8,.13-4.56-1.91,.76-3.93,1.14-5.33,1.14Zm-16.36-6.97c0,1.77-.25,2.92-.89,3.55-1.01,1.14-4.44,2.79-7.48,2.79-9,0-15.85-8.62-15.85-21.68,0-10.65,5.45-19.14,14.07-19.14,3.93,0,6.72,1.9,8.5,4.31,1.27,1.78,1.64,3.55,1.64,6.09v24.09Z" fill="#131313"/><path d="M255.77,591.23c-2.41,0-5.58-.13-9.51-.38-.89,.51-1.01,2.28-.25,3.17l2.92,.38c1.52,.26,2.28,.76,2.28,1.9,0,.76-.51,3.42-2.28,7.86-1.27,3.3-5.58,14.33-7.23,18.64-1.01,2.66-1.9,4.44-2.41,4.82-.38-.38-.89-1.52-2.03-4.06-2.92-6.59-6.59-15.47-9.51-24.22-1.27-3.8-1.14-4.44,2.79-5.07l1.52-.25c.89-.63,.76-2.66-.13-3.17-4.31,.25-6.84,.38-10.27,.38-4.31,0-8.75-.13-11.92-.38-1.01,.38-1.14,2.15-.38,3.17l2.54,.38c4.56,.64,5.7,4.69,7.61,9.38l10.65,25.74c1.9,4.69,3.8,9.63,4.82,13.19,.38,.38,1.01,.51,1.65,.51,.51,0,1.01-.13,1.27-.51,1.65-4.31,2.92-7.23,4.19-10.4,2.03-5.2,9.89-23.58,11.66-27.01,3.68-7.1,4.82-10.4,9.26-11.03l1.9-.25c.76-.76,.63-2.66-.25-3.17-3.55,.25-5.71,.38-8.88,.38Z" fill="#131313"/><path d="M308.92,629.65c-3.93,4.94-7.48,6.21-11.67,6.21-13.56,0-21.05-10.9-21.05-23.71,0-3.17,.13-3.42,3.43-3.42h23.46c5.32,0,7.1-.13,7.48-.89,.25-.51,.51-1.52,.51-3.3,0-7.61-7.1-15.09-18-15.09-15.22,0-25.49,13.06-25.49,28.65,0,5.58,1.52,11.54,5.32,16.48,3.68,4.82,10.14,8.37,18.39,8.37,6.59,0,15.72-3.17,19.9-11.79-.13-1.14-1.01-1.9-2.28-1.52Zm-17.24-36.39c7.35,0,9.76,4.44,9.76,7.99,0,1.65-.38,2.15-.76,2.41-1.02,.76-3.8,1.27-13.19,1.27h-9.01c-.89,0-.89-.38-.89-.64,.13-4.18,6.59-11.03,14.07-11.03Z" fill="#131313"/><path d="M359.63,594.02c-2.79,0-3.68-.25-7.74-2.03-2.92-1.27-7.35-2.54-12.17-2.54-11.29,0-20.67,8.24-20.67,19.15,0,8.11,5.2,13.06,9.51,15.34,0,.63-.63,1.65-1.27,2.41-2.15,2.28-4.56,4.44-6.72,5.83-1.4,1.01-1.9,1.52-1.9,2.16,0,4.44,4.31,8.75,9.25,10.02,1.14,.76,.13,1.9-1.01,3.04-2.92,2.91-6.47,6.21-8.62,8.49-.89,1.01-1.39,2.66-1.39,4.69,0,6.34,5.45,14.71,21.05,14.71,16.48,0,31.57-10.14,31.57-23.96,0-12.68-10.65-13.95-17.75-13.95-5.58,0-10.78,.38-15.09,.38-5.96,0-8.87-2.41-8.87-5.32,0-3.68,4.06-6.09,5.58-6.97,1.52,.13,3.29,.38,5.58,.38,16.1,0,21.3-11.41,21.3-20.16,0-2.16,0-4.31-.25-6.47h9.13c1.9-.25,2.15-4.56,.76-5.2h-10.27Zm-27.13,52.62c1.77-1.14,6.84-1.39,10.9-1.39h4.31c9.13,0,14.45,3.3,14.45,11.03,0,7.23-7.48,13.57-18.76,13.57s-16.99-5.71-16.99-12.55c0-4.82,3.04-8.75,6.09-10.65Zm8.37-24.47c-6.08,0-11.54-5.83-11.54-14.84s4.57-14.2,10.65-14.2c7.74,0,11.28,7.23,11.28,15.85,0,7.73-3.55,13.19-10.4,13.19Z" fill="#131313"/><path d="M421.25,635.73c-.38,0-1.01,.51-1.65,.89-.76,.38-1.9,.76-3.17,.76-4.95,0-6.09-5.2-5.83-11.03l.76-22.06c.38-9.51-4.06-14.83-13.19-14.83s-23.58,9-23.58,15.6c0,1.14,.64,1.78,1.78,1.78,1.9,0,5.33-.89,7.23-2.41,1.01-.76,1.14-2.28,1.27-4.31,.25-3.93,4.56-5.71,8.11-5.71,7.86,0,9.38,6.34,9.26,11.03l-.13,5.83c-.12,1.9-.25,3.04-2.15,3.68l-15.09,5.45c-8.11,2.92-10.52,5.83-10.52,10.78,0,3.55,1.52,6.72,3.93,8.88,2.15,1.9,5.2,2.92,8.87,2.92s6.34-1.65,9.13-3.17c2.53-1.39,4.05-2.54,4.94-2.54,.76,0,1.52,1.02,2.03,1.78,2.16,2.79,5.2,3.93,8.24,3.93,6.21,0,10.65-4.94,10.65-5.58,0-.89-.38-1.65-.89-1.65Zm-19.78-7.61c0,2.66-.12,4.44-1.65,5.96-1.27,1.27-5.2,3.17-7.74,3.17-6.47,0-7.99-5.45-7.99-7.61,0-4.95,3.68-6.85,11.16-9.38,2.28-.76,4.44-1.27,5.2-1.27s1.26,.25,1.26,1.65l-.25,7.48Z" fill="#131313"/><path d="M481.72,638.02c-4.56-.64-4.82-1.9-4.82-11.03v-21.81c0-8.5-4.31-15.72-14.84-15.72-6.47,0-12.42,3.17-17.75,6.47-.89,0-1.4-.64-1.4-1.39,0-1.14,0-3.04,.25-5.96-.25-.63-.89-.89-1.4-.89-2.54,1.9-9.76,5.2-12.68,6.21-.63,.38-.63,1.77-.13,2.28l1.14,.76c3.42,2.28,3.42,2.91,3.42,7.86v22.19c0,9.13-.12,10.4-4.81,11.03l-2.67,.38c-.89,.63-.63,2.79,.25,3.17,3.55-.25,7.35-.38,11.92-.38s8.12,.13,11.54,.38c.89-.38,1.14-2.53,.25-3.17l-2.28-.38c-4.56-.76-4.82-1.9-4.82-11.03v-19.4c0-3.68,.25-5.45,1.9-7.61,1.78-2.41,5.96-4.44,10.78-4.44,8.63,0,11.92,5.32,11.92,12.55v18.89c0,9.13-.13,10.27-4.82,11.03l-2.41,.38c-.89,.63-.63,2.79,.25,3.17,3.43-.25,7.23-.38,11.79-.38s8.12,.13,11.92,.38c.89-.38,1.14-2.53,.25-3.17l-2.79-.38Z" fill="#131313"/><path d="M229.64,313.68c-3.23,0-5.76,5.1-5.76,11.6s2.48,11.58,5.76,11.58,5.8-5.09,5.8-11.58-2.55-11.6-5.8-11.6Z" fill="#131313"/><path d="M283.04,336.92c3.28,0,5.75-4.99,5.75-11.6s-2.52-11.56-5.75-11.56-5.76,5.08-5.76,11.56,2.48,11.6,5.76,11.6Z" fill="#131313"/><path d="M155.17,192.61c30.63,29.06,61.86,57.58,93.71,85.33-9.6,.92-17.72,1.29-27,8.19-10.25,7.63-18.13,18.08-25.64,28.28-6.15,8.35-13.23,14.26-20.13,21.82-7.98,8.74-10.32,20.11-8.85,31.65-3.2,.77-6.4,1.54-9.54,2.58-7.48,2.48-17.64,5.89-22.05,13-.84,1.35,.54,5.11,.16,5.72,4.93-7.95,17.27-11.51,25.63-13.96,2.25-.66,4.54-1.11,6.81-1.63,.74,3.14,1.79,6.24,3.03,9.3-3.42,1.36-6.82,2.81-10.12,4.5-6.99,3.6-16.75,8.56-19.98,16.33-.65,1.55,.51,4.88,.16,5.72,3.55-8.55,15.24-14,23.03-17.69,3.01-1.43,6.1-2.64,9.2-3.8,7.99,15.88,22.07,29.08,37.19,31.98,10.27,1.97,20.31-1.49,28.91-7,3.69-2.37,14.76-16.34,18.17-16.69,2.01-.21,4.33,3.12,6.62,5.2,7.17,6.52,15.47,12.43,24.65,15.72,21.9,7.84,44.8-8.52,55.83-30.01,3.95,1.39,7.84,2.95,11.66,4.76,7.78,3.68,19.44,9.16,23.04,17.68-.36-.85,.82-4.16,.16-5.72-3.28-7.77-12.95-12.68-20-16.31-4.09-2.11-8.29-3.91-12.57-5.51,1.42-3.47,2.52-7,3.26-10.57,4.17,.76,8.32,1.7,12.42,2.9,8.33,2.44,20.74,6.03,25.65,13.97-.39-.64,1.01-4.35,.16-5.72-4.42-7.14-14.57-10.51-22.07-13.02-5-1.67-10.1-2.86-15.25-3.83,.63-6.66-.05-13.24-2.47-19.27-2.73-6.81-8.71-10.92-14.25-15.3-10.56-8.36-15.49-19.23-23.56-29.97-13.28-17.67-26.41-22.39-45.16-23.65,27.43-23.92,54.37-48.43,80.93-73.31,23.27-21.79,51.56-43.93,69.23-70.83,15.88-24.17,26.88-59.24,20.31-88.38-8.47-37.51-58.49-54.42-90.05-38.26-49.43,25.31-70.11,73.77-87.4,123.25-.04-.57-.03-1.18-.19-1.65-14.9-43.26-32.57-84.03-71.93-110.34-20.84-13.93-43.72-24.29-68.31-13.74-12.94,5.55-26.1,15.91-34.29,27.56-17.27,24.57-3.92,66.29,7.68,89.84,13.89,28.22,40.8,49.64,63.2,70.89Zm140.72,103.23c15.66,11.33,20.85,31.14,35.17,43.24,4.11,3.47,8.98,6.13,12.62,10.16,4.68,5.2,5.18,10.49,3.94,15.92-10.55-1.67-21.29-2.2-31.99-1.66-.53,.03-.35,5.95,0,5.94,10.13-.51,20.24-.06,30.22,1.38-.73,1.71-1.46,3.41-2.38,5.16-.73,1.39-1.56,2.73-2.34,4.09-9.96-3.16-20.24-5.26-30.67-6.33-.24-.03-.64,5.87,0,5.94,9.39,.96,18.62,2.76,27.63,5.39-10.81,16.56-26.12,28.8-47.33,22.02-7.33-2.34-14.04-6.44-20.12-11.1-1.39-1.07-5.84-6.16-8.97-8.82,2.31-3.55,2.67-10.68,2.71-13.47,2.35-1.43,9.9-6.35,10.62-11.07,.22-1.44-.2-2.77-1.21-3.86-.62-.67-1.48-1.04-2.49-1.05h-.06c-3.93,0-10.1,5.57-12.43,7.83-2.19-2.12-7.8-7.15-12.12-6.92-1.36,.05-2.54,.62-3.38,1.64-.86,1.01-1.19,2.23-.95,3.52,.81,4.32,8.06,8.72,10.36,10.01,.13,2.77,.79,10.08,3.04,13.47-5.22,3.98-14.07,13.86-17.55,15.95-19.61,11.79-38.64,5.92-53.04-10.92-1.58-1.85-3.42-4.07-5.28-6.47,9.95-3.15,20.22-5.22,30.65-6.29,.62-.06,.26-5.96,0-5.94-11.63,1.19-23.11,3.6-34.13,7.43-1.79-2.64-3.38-5.42-4.71-8.26,12.17-2.44,24.58-3.11,37.03-2.48,.34,.02,.54-5.91,0-5.94-13.13-.66-26.29,.08-39.09,2.87-1.06-3.87-1.33-7.72-.05-11.28,2.23-6.19,8.32-10.92,12.97-15.25,15.53-14.47,24.64-35.17,43.12-46.57,10.17-6.28,19.08-4.65,30.13-6.33,14.15,.24,28.01-.64,40.04,8.06ZM88.33,37.79c9.12-10.47,20.87-19.7,34.04-24.33,21.81-7.65,41.66,.82,60.22,12.45,40.72,25.51,59.41,65.58,74.66,109.15-.38,1.09-.78,2.18-1.15,3.27-.99,2.89,.85,8.59,.28,10.25,13.92-40.59,28.2-82.98,61.66-111.99,16.15-14.01,37.69-28.21,59.95-26.69,16.59,1.13,31.27,10.35,42.98,21.62,16.95,16.32,17.57,35.62,10.44,57.89-4.74,14.8-11.45,29.56-21.41,41.6-19.71,23.82-43.83,44.66-66.36,65.7-28.36,26.48-57.05,52.67-86.43,78.01-50.45-43.49-101.8-88.13-146.9-137.21-21.44-23.32-45.97-72.18-21.98-99.72Z" fill="#131313"/></svg>
